<svg xmlns="http://www.w3.org/2000/svg" xmlns:xlink="http://www.w3.org/1999/xlink" width="134pt" height="116pt" viewBox="0.00 0.00 134.00 116.00">
<g id="graph0" class="graph" transform="scale(1 1) rotate(0) translate(4 112)">
<title>G</title>
<polygon fill="white" stroke="none" points="-4,4 -4,-112 130,-112 130,4 -4,4"/>
<!-- 0 -->
<g id="node1" class="node">
<title>0</title>
<polygon fill="none" stroke="blue" points="54,-108 0,-108 0,-72 54,-72 54,-108"/>
<text xml:space="preserve" text-anchor="middle" x="27" y="-85.8" font-family="Times,serif" font-size="14.00">I 0</text>
</g>
<!-- 2 -->
<g id="node3" class="node">
<title>2</title>
<polygon fill="none" stroke="green" points="93.74,-36 32.26,-36 32.26,0 93.74,0 93.74,-36"/>
<text xml:space="preserve" text-anchor="middle" x="63" y="-13.8" font-family="Times,serif" font-size="14.00">O linear</text>
</g>
<!-- 0&#45;&gt;2 -->
<g id="edge1" class="edge">
<title>0-&gt;2</title>
<path fill="none" stroke="black" d="M35.9,-71.7C39.87,-63.98 44.63,-54.71 49.06,-46.11"/>
<polygon fill="black" stroke="black" points="52.05,-47.94 53.51,-37.45 45.83,-44.74 52.05,-47.94"/>
</g>
<!-- 1 -->
<g id="node2" class="node">
<title>1</title>
<polygon fill="none" stroke="blue" points="126,-108 72,-108 72,-72 126,-72 126,-108"/>
<text xml:space="preserve" text-anchor="middle" x="99" y="-85.8" font-family="Times,serif" font-size="14.00">I 1</text>
</g>
<!-- 1&#45;&gt;2 -->
<g id="edge2" class="edge">
<title>1-&gt;2</title>
<path fill="none" stroke="black" d="M90.1,-71.7C86.13,-63.98 81.37,-54.71 76.94,-46.11"/>
<polygon fill="black" stroke="black" points="80.17,-44.74 72.49,-37.45 73.95,-47.94 80.17,-44.74"/>
</g>
</g>
</svg>