<svg xmlns="http://www.w3.org/2000/svg" xmlns:xlink="http://www.w3.org/1999/xlink" width="174pt" height="188pt" viewBox="0.00 0.00 174.00 188.00">
<g id="graph0" class="graph" transform="scale(1 1) rotate(0) translate(4 184)">
<title>G</title>
<polygon fill="white" stroke="none" points="-4,4 -4,-184 170.45,-184 170.45,4 -4,4"/>
<!-- 0 -->
<g id="node1" class="node">
<title>0</title>
<polygon fill="none" stroke="blue" points="64.23,-180 10.23,-180 10.23,-144 64.23,-144 64.23,-180"/>
<text xml:space="preserve" text-anchor="middle" x="37.23" y="-157.8" font-family="Times,serif" font-size="14.00">I 0</text>
</g>
<!-- 2 -->
<g id="node3" class="node">
<title>2</title>
<polygon fill="none" stroke="gray" points="37.23,-108 0,-90 37.23,-72 74.45,-90 37.23,-108"/>
<text xml:space="preserve" text-anchor="middle" x="37.23" y="-85.8" font-family="Times,serif" font-size="14.00">E w</text>
</g>
<!-- 0&#45;&gt;2 -->
<g id="edge1" class="edge">
<title>0-&gt;2</title>
<path fill="none" stroke="black" d="M37.23,-143.7C37.23,-136.41 37.23,-127.73 37.23,-119.54"/>
<polygon fill="black" stroke="black" points="40.73,-119.62 37.23,-109.62 33.73,-119.62 40.73,-119.62"/>
</g>
<!-- 1 -->
<g id="node2" class="node">
<title>1</title>
<polygon fill="none" stroke="blue" points="156.23,-180 102.23,-180 102.23,-144 156.23,-144 156.23,-180"/>
<text xml:space="preserve" text-anchor="middle" x="129.23" y="-157.8" font-family="Times,serif" font-size="14.00">I 1</text>
</g>
<!-- 3 -->
<g id="node4" class="node">
<title>3</title>
<polygon fill="none" stroke="gray" points="129.23,-108 92,-90 129.23,-72 166.45,-90 129.23,-108"/>
<text xml:space="preserve" text-anchor="middle" x="129.23" y="-85.8" font-family="Times,serif" font-size="14.00">E w</text>
</g>
<!-- 1&#45;&gt;3 -->
<g id="edge2" class="edge">
<title>1-&gt;3</title>
<path fill="none" stroke="black" d="M129.23,-143.7C129.23,-136.41 129.23,-127.73 129.23,-119.54"/>
<polygon fill="black" stroke="black" points="132.73,-119.62 129.23,-109.62 125.73,-119.62 132.73,-119.62"/>
</g>
<!-- 4 -->
<g id="node5" class="node">
<title>4</title>
<polygon fill="none" stroke="green" points="113.97,-36 52.49,-36 52.49,0 113.97,0 113.97,-36"/>
<text xml:space="preserve" text-anchor="middle" x="83.23" y="-13.8" font-family="Times,serif" font-size="14.00">O linear</text>
</g>
<!-- 2&#45;&gt;4 -->
<g id="edge3" class="edge">
<title>2-&gt;4</title>
<path fill="none" stroke="black" d="M45.88,-75.83C51.44,-67.37 58.87,-56.07 65.63,-45.78"/>
<polygon fill="black" stroke="black" points="68.43,-47.89 71,-37.61 62.58,-44.04 68.43,-47.89"/>
</g>
<!-- 3&#45;&gt;4 -->
<g id="edge4" class="edge">
<title>3-&gt;4</title>
<path fill="none" stroke="black" d="M120.57,-75.83C115.01,-67.37 107.59,-56.07 100.82,-45.78"/>
<polygon fill="black" stroke="black" points="103.87,-44.04 95.45,-37.61 98.02,-47.89 103.87,-44.04"/>
</g>
</g>
</svg>