<svg xmlns="http://www.w3.org/2000/svg" xmlns:xlink="http://www.w3.org/1999/xlink" width="566pt" height="476pt" viewBox="0.00 0.00 566.00 476.00">
<g id="graph0" class="graph" transform="scale(1 1) rotate(0) translate(4 472)">
<title>G</title>
<polygon fill="white" stroke="none" points="-4,4 -4,-472 562,-472 562,4 -4,4"/>
<!-- 0 -->
<g id="node1" class="node">
<title>0</title>
<ellipse fill="none" stroke="black" cx="297" cy="-450" rx="27" ry="18"/>
<text text-anchor="middle" x="297" y="-445.8" font-family="Times,serif" font-size="14.00">add</text>
</g>
<!-- 1 -->
<g id="node2" class="node">
<title>1</title>
<ellipse fill="none" stroke="black" cx="207" cy="-378" rx="27" ry="18"/>
<text text-anchor="middle" x="207" y="-373.8" font-family="Times,serif" font-size="14.00">sub</text>
</g>
<!-- 0&#45;&gt;1 -->
<g id="edge13" class="edge">
<title>0-&gt;1</title>
<path fill="none" stroke="black" d="M280.07,-435.83C266.83,-425.54 248.19,-411.04 233.05,-399.26"/>
<polygon fill="black" stroke="black" points="235.4,-396.65 225.35,-393.27 231.1,-402.18 235.4,-396.65"/>
</g>
<!-- 14 -->
<g id="node15" class="node">
<title>14</title>
<ellipse fill="none" stroke="black" cx="351" cy="-378" rx="27" ry="18"/>
<text text-anchor="middle" x="351" y="-373.8" font-family="Times,serif" font-size="14.00">mul</text>
</g>
<!-- 0&#45;&gt;14 -->
<g id="edge22" class="edge">
<title>0-&gt;14</title>
<path fill="none" stroke="black" d="M308.98,-433.46C315.77,-424.67 324.4,-413.48 332.08,-403.53"/>
<polygon fill="black" stroke="black" points="334.79,-405.75 338.12,-395.69 329.25,-401.47 334.79,-405.75"/>
</g>
<!-- 2 -->
<g id="node3" class="node">
<title>2</title>
<ellipse fill="none" stroke="black" cx="99" cy="-306" rx="27" ry="18"/>
<text text-anchor="middle" x="99" y="-301.8" font-family="Times,serif" font-size="14.00">add</text>
</g>
<!-- 1&#45;&gt;2 -->
<g id="edge3" class="edge">
<title>1-&gt;2</title>
<path fill="none" stroke="black" d="M188.19,-364.81C171.41,-353.93 146.61,-337.86 127.41,-325.42"/>
<polygon fill="black" stroke="black" points="129.52,-322.61 119.23,-320.11 125.72,-328.49 129.52,-322.61"/>
</g>
<!-- 5 -->
<g id="node6" class="node">
<title>5</title>
<ellipse fill="none" stroke="black" cx="207" cy="-306" rx="27" ry="18"/>
<text text-anchor="middle" x="207" y="-301.8" font-family="Times,serif" font-size="14.00">add</text>
</g>
<!-- 1&#45;&gt;5 -->
<g id="edge12" class="edge">
<title>1-&gt;5</title>
<path fill="none" stroke="black" d="M207,-359.7C207,-352.41 207,-343.73 207,-335.54"/>
<polygon fill="black" stroke="black" points="210.5,-335.62 207,-325.62 203.5,-335.62 210.5,-335.62"/>
</g>
<!-- 3 -->
<g id="node4" class="node">
<title>3</title>
<ellipse fill="none" stroke="black" cx="27" cy="-234" rx="27" ry="18"/>
<text text-anchor="middle" x="27" y="-229.8" font-family="Times,serif" font-size="14.00">0</text>
</g>
<!-- 2&#45;&gt;3 -->
<g id="edge1" class="edge">
<title>2-&gt;3</title>
<path fill="none" stroke="black" d="M84.08,-290.5C74.23,-280.92 61.14,-268.19 49.97,-257.34"/>
<polygon fill="black" stroke="black" points="52.59,-255 42.98,-250.54 47.71,-260.02 52.59,-255"/>
</g>
<!-- 4 -->
<g id="node5" class="node">
<title>4</title>
<ellipse fill="none" stroke="black" cx="99" cy="-234" rx="27" ry="18"/>
<text text-anchor="middle" x="99" y="-229.8" font-family="Times,serif" font-size="14.00">0</text>
</g>
<!-- 2&#45;&gt;4 -->
<g id="edge2" class="edge">
<title>2-&gt;4</title>
<path fill="none" stroke="black" d="M99,-287.7C99,-280.41 99,-271.73 99,-263.54"/>
<polygon fill="black" stroke="black" points="102.5,-263.62 99,-253.62 95.5,-263.62 102.5,-263.62"/>
</g>
<!-- 6 -->
<g id="node7" class="node">
<title>6</title>
<ellipse fill="none" stroke="black" cx="171" cy="-234" rx="27" ry="18"/>
<text text-anchor="middle" x="171" y="-229.8" font-family="Times,serif" font-size="14.00">0</text>
</g>
<!-- 5&#45;&gt;6 -->
<g id="edge4" class="edge">
<title>5-&gt;6</title>
<path fill="none" stroke="black" d="M198.65,-288.76C194.42,-280.55 189.19,-270.37 184.42,-261.09"/>
<polygon fill="black" stroke="black" points="187.68,-259.79 180,-252.49 181.46,-262.99 187.68,-259.79"/>
</g>
<!-- 7 -->
<g id="node8" class="node">
<title>7</title>
<ellipse fill="none" stroke="black" cx="243" cy="-234" rx="27" ry="18"/>
<text text-anchor="middle" x="243" y="-229.8" font-family="Times,serif" font-size="14.00">mul</text>
</g>
<!-- 5&#45;&gt;7 -->
<g id="edge11" class="edge">
<title>5-&gt;7</title>
<path fill="none" stroke="black" d="M215.35,-288.76C219.58,-280.55 224.81,-270.37 229.58,-261.09"/>
<polygon fill="black" stroke="black" points="232.54,-262.99 234,-252.49 226.32,-259.79 232.54,-262.99"/>
</g>
<!-- 8 -->
<g id="node9" class="node">
<title>8</title>
<ellipse fill="none" stroke="black" cx="171" cy="-162" rx="27" ry="18"/>
<text text-anchor="middle" x="171" y="-157.8" font-family="Times,serif" font-size="14.00">add</text>
</g>
<!-- 7&#45;&gt;8 -->
<g id="edge9" class="edge">
<title>7-&gt;8</title>
<path fill="none" stroke="black" d="M228.08,-218.5C218.23,-208.92 205.14,-196.19 193.97,-185.34"/>
<polygon fill="black" stroke="black" points="196.59,-183 186.98,-178.54 191.71,-188.02 196.59,-183"/>
</g>
<!-- 13 -->
<g id="node14" class="node">
<title>13</title>
<ellipse fill="none" stroke="black" cx="243" cy="-162" rx="27" ry="18"/>
<text text-anchor="middle" x="243" y="-157.8" font-family="Times,serif" font-size="14.00">0</text>
</g>
<!-- 7&#45;&gt;13 -->
<g id="edge10" class="edge">
<title>7-&gt;13</title>
<path fill="none" stroke="black" d="M243,-215.7C243,-208.41 243,-199.73 243,-191.54"/>
<polygon fill="black" stroke="black" points="246.5,-191.62 243,-181.62 239.5,-191.62 246.5,-191.62"/>
</g>
<!-- 9 -->
<g id="node10" class="node">
<title>9</title>
<ellipse fill="none" stroke="black" cx="135" cy="-90" rx="27" ry="18"/>
<text text-anchor="middle" x="135" y="-85.8" font-family="Times,serif" font-size="14.00">0</text>
</g>
<!-- 8&#45;&gt;9 -->
<g id="edge5" class="edge">
<title>8-&gt;9</title>
<path fill="none" stroke="black" d="M162.65,-144.76C158.42,-136.55 153.19,-126.37 148.42,-117.09"/>
<polygon fill="black" stroke="black" points="151.68,-115.79 144,-108.49 145.46,-118.99 151.68,-115.79"/>
</g>
<!-- 10 -->
<g id="node11" class="node">
<title>10</title>
<ellipse fill="none" stroke="black" cx="207" cy="-90" rx="27" ry="18"/>
<text text-anchor="middle" x="207" y="-85.8" font-family="Times,serif" font-size="14.00">add</text>
</g>
<!-- 8&#45;&gt;10 -->
<g id="edge8" class="edge">
<title>8-&gt;10</title>
<path fill="none" stroke="black" d="M179.35,-144.76C183.58,-136.55 188.81,-126.37 193.58,-117.09"/>
<polygon fill="black" stroke="black" points="196.54,-118.99 198,-108.49 190.32,-115.79 196.54,-118.99"/>
</g>
<!-- 11 -->
<g id="node12" class="node">
<title>11</title>
<ellipse fill="none" stroke="black" cx="171" cy="-18" rx="27" ry="18"/>
<text text-anchor="middle" x="171" y="-13.8" font-family="Times,serif" font-size="14.00">0</text>
</g>
<!-- 10&#45;&gt;11 -->
<g id="edge6" class="edge">
<title>10-&gt;11</title>
<path fill="none" stroke="black" d="M198.65,-72.76C194.42,-64.55 189.19,-54.37 184.42,-45.09"/>
<polygon fill="black" stroke="black" points="187.68,-43.79 180,-36.49 181.46,-46.99 187.68,-43.79"/>
</g>
<!-- 12 -->
<g id="node13" class="node">
<title>12</title>
<ellipse fill="none" stroke="black" cx="243" cy="-18" rx="27" ry="18"/>
<text text-anchor="middle" x="243" y="-13.8" font-family="Times,serif" font-size="14.00">0</text>
</g>
<!-- 10&#45;&gt;12 -->
<g id="edge7" class="edge">
<title>10-&gt;12</title>
<path fill="none" stroke="black" d="M215.35,-72.76C219.58,-64.55 224.81,-54.37 229.58,-45.09"/>
<polygon fill="black" stroke="black" points="232.54,-46.99 234,-36.49 226.32,-43.79 232.54,-46.99"/>
</g>
<!-- 15 -->
<g id="node16" class="node">
<title>15</title>
<ellipse fill="none" stroke="black" cx="351" cy="-306" rx="27" ry="18"/>
<text text-anchor="middle" x="351" y="-301.8" font-family="Times,serif" font-size="14.00">mul</text>
</g>
<!-- 14&#45;&gt;15 -->
<g id="edge20" class="edge">
<title>14-&gt;15</title>
<path fill="none" stroke="black" d="M351,-359.7C351,-352.41 351,-343.73 351,-335.54"/>
<polygon fill="black" stroke="black" points="354.5,-335.62 351,-325.62 347.5,-335.62 354.5,-335.62"/>
</g>
<!-- 22 -->
<g id="node23" class="node">
<title>22</title>
<ellipse fill="none" stroke="black" cx="423" cy="-306" rx="27" ry="18"/>
<text text-anchor="middle" x="423" y="-301.8" font-family="Times,serif" font-size="14.00">0</text>
</g>
<!-- 14&#45;&gt;22 -->
<g id="edge21" class="edge">
<title>14-&gt;22</title>
<path fill="none" stroke="black" d="M365.92,-362.5C375.77,-352.92 388.86,-340.19 400.03,-329.34"/>
<polygon fill="black" stroke="black" points="402.29,-332.02 407.02,-322.54 397.41,-327 402.29,-332.02"/>
</g>
<!-- 16 -->
<g id="node17" class="node">
<title>16</title>
<ellipse fill="none" stroke="black" cx="351" cy="-234" rx="27" ry="18"/>
<text text-anchor="middle" x="351" y="-229.8" font-family="Times,serif" font-size="14.00">add</text>
</g>
<!-- 15&#45;&gt;16 -->
<g id="edge16" class="edge">
<title>15-&gt;16</title>
<path fill="none" stroke="black" d="M351,-287.7C351,-280.41 351,-271.73 351,-263.54"/>
<polygon fill="black" stroke="black" points="354.5,-263.62 351,-253.62 347.5,-263.62 354.5,-263.62"/>
</g>
<!-- 19 -->
<g id="node20" class="node">
<title>19</title>
<ellipse fill="none" stroke="black" cx="459" cy="-234" rx="27" ry="18"/>
<text text-anchor="middle" x="459" y="-229.8" font-family="Times,serif" font-size="14.00">add</text>
</g>
<!-- 15&#45;&gt;19 -->
<g id="edge19" class="edge">
<title>15-&gt;19</title>
<path fill="none" stroke="black" d="M369.81,-292.81C386.59,-281.93 411.39,-265.86 430.59,-253.42"/>
<polygon fill="black" stroke="black" points="432.28,-256.49 438.77,-248.11 428.48,-250.61 432.28,-256.49"/>
</g>
<!-- 17 -->
<g id="node18" class="node">
<title>17</title>
<ellipse fill="none" stroke="black" cx="315" cy="-162" rx="27" ry="18"/>
<text text-anchor="middle" x="315" y="-157.8" font-family="Times,serif" font-size="14.00">0</text>
</g>
<!-- 16&#45;&gt;17 -->
<g id="edge14" class="edge">
<title>16-&gt;17</title>
<path fill="none" stroke="black" d="M342.65,-216.76C338.42,-208.55 333.19,-198.37 328.42,-189.09"/>
<polygon fill="black" stroke="black" points="331.68,-187.79 324,-180.49 325.46,-190.99 331.68,-187.79"/>
</g>
<!-- 18 -->
<g id="node19" class="node">
<title>18</title>
<ellipse fill="none" stroke="black" cx="387" cy="-162" rx="27" ry="18"/>
<text text-anchor="middle" x="387" y="-157.8" font-family="Times,serif" font-size="14.00">0</text>
</g>
<!-- 16&#45;&gt;18 -->
<g id="edge15" class="edge">
<title>16-&gt;18</title>
<path fill="none" stroke="black" d="M359.35,-216.76C363.58,-208.55 368.81,-198.37 373.58,-189.09"/>
<polygon fill="black" stroke="black" points="376.54,-190.99 378,-180.49 370.32,-187.79 376.54,-190.99"/>
</g>
<!-- 20 -->
<g id="node21" class="node">
<title>20</title>
<ellipse fill="none" stroke="black" cx="459" cy="-162" rx="27" ry="18"/>
<text text-anchor="middle" x="459" y="-157.8" font-family="Times,serif" font-size="14.00">0</text>
</g>
<!-- 19&#45;&gt;20 -->
<g id="edge17" class="edge">
<title>19-&gt;20</title>
<path fill="none" stroke="black" d="M459,-215.7C459,-208.41 459,-199.73 459,-191.54"/>
<polygon fill="black" stroke="black" points="462.5,-191.62 459,-181.62 455.5,-191.62 462.5,-191.62"/>
</g>
<!-- 21 -->
<g id="node22" class="node">
<title>21</title>
<ellipse fill="none" stroke="black" cx="531" cy="-162" rx="27" ry="18"/>
<text text-anchor="middle" x="531" y="-157.8" font-family="Times,serif" font-size="14.00">0</text>
</g>
<!-- 19&#45;&gt;21 -->
<g id="edge18" class="edge">
<title>19-&gt;21</title>
<path fill="none" stroke="black" d="M473.92,-218.5C483.77,-208.92 496.86,-196.19 508.03,-185.34"/>
<polygon fill="black" stroke="black" points="510.29,-188.02 515.02,-178.54 505.41,-183 510.29,-188.02"/>
</g>
</g>
</svg>