<svg xmlns="http://www.w3.org/2000/svg" xmlns:xlink="http://www.w3.org/1999/xlink" width="232pt" height="309pt" viewBox="0.00 0.00 232.00 309.00">
<g id="graph0" class="graph" transform="scale(1 1) rotate(0) translate(4 304.81)">
<title>G</title>
<polygon fill="white" stroke="none" points="-4,4 -4,-304.81 227.81,-304.81 227.81,4 -4,4"/>
<!-- 0 -->
<g id="node1" class="node">
<title>0</title>
<polygon fill="none" stroke="blue" points="69.41,-300.81 15.41,-300.81 15.41,-264.81 69.41,-264.81 69.41,-300.81"/>
<text xml:space="preserve" text-anchor="middle" x="42.41" y="-278.61" font-family="Times,serif" font-size="14.00">I 0</text>
</g>
<!-- 2 -->
<g id="node3" class="node">
<title>2</title>
<ellipse fill="none" stroke="orange" cx="42.41" cy="-186.41" rx="42.41" ry="42.41"/>
<text xml:space="preserve" text-anchor="middle" x="42.41" y="-182.21" font-family="Times,serif" font-size="14.00">V linear</text>
</g>
<!-- 0&#45;&gt;2 -->
<g id="edge1" class="edge">
<title>0-&gt;2</title>
<path fill="none" stroke="black" d="M42.41,-264.5C42.41,-257.54 42.41,-249.11 42.41,-240.41"/>
<polygon fill="black" stroke="black" points="45.91,-240.44 42.41,-230.44 38.91,-240.44 45.91,-240.44"/>
</g>
<!-- 1 -->
<g id="node2" class="node">
<title>1</title>
<polygon fill="none" stroke="blue" points="190.41,-300.81 136.41,-300.81 136.41,-264.81 190.41,-264.81 190.41,-300.81"/>
<text xml:space="preserve" text-anchor="middle" x="163.41" y="-278.61" font-family="Times,serif" font-size="14.00">I 1</text>
</g>
<!-- 3 -->
<g id="node4" class="node">
<title>3</title>
<ellipse fill="none" stroke="orange" cx="163.41" cy="-186.41" rx="42.41" ry="42.41"/>
<text xml:space="preserve" text-anchor="middle" x="163.41" y="-182.21" font-family="Times,serif" font-size="14.00">V linear</text>
</g>
<!-- 1&#45;&gt;3 -->
<g id="edge3" class="edge">
<title>1-&gt;3</title>
<path fill="none" stroke="black" d="M163.41,-264.5C163.41,-257.54 163.41,-249.11 163.41,-240.41"/>
<polygon fill="black" stroke="black" points="166.91,-240.44 163.41,-230.44 159.91,-240.44 166.91,-240.44"/>
</g>
<!-- 2&#45;&gt;2 -->
<g id="edge2" class="edge">
<title>2-&gt;2</title>
<path fill="none" stroke="black" stroke-dasharray="5,2" d="M81.04,-204.47C93.21,-204.2 102.81,-198.18 102.81,-186.41 102.81,-178.5 98.48,-173.19 91.94,-170.47"/>
<polygon fill="black" stroke="black" points="93.01,-167.11 82.53,-168.63 91.67,-173.98 93.01,-167.11"/>
</g>
<!-- 4 -->
<g id="node5" class="node">
<title>4</title>
<polygon fill="none" stroke="gray" points="56.41,-108 19.18,-90 56.41,-72 93.63,-90 56.41,-108"/>
<text xml:space="preserve" text-anchor="middle" x="56.41" y="-85.8" font-family="Times,serif" font-size="14.00">E w</text>
</g>
<!-- 2&#45;&gt;4 -->
<g id="edge5" class="edge">
<title>2-&gt;4</title>
<path fill="none" stroke="black" stroke-dasharray="5,2" d="M48.55,-144C49.84,-135.31 51.16,-126.36 52.35,-118.35"/>
<polygon fill="black" stroke="black" points="55.8,-118.95 53.81,-108.55 48.88,-117.93 55.8,-118.95"/>
</g>
<!-- 3&#45;&gt;3 -->
<g id="edge4" class="edge">
<title>3-&gt;3</title>
<path fill="none" stroke="black" stroke-dasharray="5,2" d="M202.04,-204.47C214.21,-204.2 223.81,-198.18 223.81,-186.41 223.81,-178.5 219.48,-173.19 212.94,-170.47"/>
<polygon fill="black" stroke="black" points="214.01,-167.11 203.53,-168.63 212.67,-173.98 214.01,-167.11"/>
</g>
<!-- 5 -->
<g id="node6" class="node">
<title>5</title>
<polygon fill="none" stroke="gray" points="155.41,-108 118.18,-90 155.41,-72 192.63,-90 155.41,-108"/>
<text xml:space="preserve" text-anchor="middle" x="155.41" y="-85.8" font-family="Times,serif" font-size="14.00">E w</text>
</g>
<!-- 3&#45;&gt;5 -->
<g id="edge6" class="edge">
<title>3-&gt;5</title>
<path fill="none" stroke="black" stroke-dasharray="5,2" d="M159.88,-143.72C159.16,-135.3 158.43,-126.63 157.76,-118.82"/>
<polygon fill="black" stroke="black" points="161.26,-118.59 156.93,-108.92 154.28,-119.18 161.26,-118.59"/>
</g>
<!-- 6 -->
<g id="node7" class="node">
<title>6</title>
<polygon fill="none" stroke="green" points="133.15,-36 71.67,-36 71.67,0 133.15,0 133.15,-36"/>
<text xml:space="preserve" text-anchor="middle" x="102.41" y="-13.8" font-family="Times,serif" font-size="14.00">O linear</text>
</g>
<!-- 4&#45;&gt;6 -->
<g id="edge7" class="edge">
<title>4-&gt;6</title>
<path fill="none" stroke="black" d="M65.06,-75.83C70.62,-67.37 78.05,-56.07 84.81,-45.78"/>
<polygon fill="black" stroke="black" points="87.61,-47.89 90.18,-37.61 81.76,-44.04 87.61,-47.89"/>
</g>
<!-- 5&#45;&gt;6 -->
<g id="edge8" class="edge">
<title>5-&gt;6</title>
<path fill="none" stroke="black" d="M145.69,-76.16C139.12,-67.49 130.22,-55.74 122.2,-45.15"/>
<polygon fill="black" stroke="black" points="125.2,-43.31 116.38,-37.45 119.62,-47.53 125.2,-43.31"/>
</g>
</g>
</svg>